<?xml version="1.0" encoding="UTF-8" standalone="no"?>
<!-- Created with Inkscape (http://www.inkscape.org/) -->

<svg
   xmlns:dc="http://purl.org/dc/elements/1.1/"
   xmlns:cc="http://creativecommons.org/ns#"
   xmlns:rdf="http://www.w3.org/1999/02/22-rdf-syntax-ns#"
   xmlns:svg="http://www.w3.org/2000/svg"
   xmlns="http://www.w3.org/2000/svg"
   xmlns:sodipodi="http://sodipodi.sourceforge.net/DTD/sodipodi-0.dtd"
   xmlns:inkscape="http://www.inkscape.org/namespaces/inkscape"
   id="svg2"
   version="1.1"
   inkscape:version="0.48.4 r9939"
   width="401.31839"
   height="240.52434"
   xml:space="preserve"
   sodipodi:docname="three-residues.svg"><sodipodi:namedview
     pagecolor="#ffffff"
     bordercolor="#666666"
     borderopacity="1"
     objecttolerance="10"
     gridtolerance="10"
     guidetolerance="10"
     inkscape:pageopacity="0"
     inkscape:pageshadow="2"
     inkscape:window-width="1264"
     inkscape:window-height="1194"
     id="namedview4"
     showgrid="false"
     inkscape:zoom="1.3485026"
     inkscape:cx="209.89705"
     inkscape:cy="120.49996"
     inkscape:window-x="650"
     inkscape:window-y="0"
     inkscape:window-maximized="0"
     inkscape:current-layer="g10"
     fit-margin-top="10"
     fit-margin-left="10"
     fit-margin-right="10"
     fit-margin-bottom="10" /><metadata
     id="metadata8"><rdf:RDF><cc:Work
         rdf:about=""><dc:format>image/svg+xml</dc:format><dc:type
           rdf:resource="http://purl.org/dc/dcmitype/StillImage" /><dc:title /></cc:Work></rdf:RDF></metadata><defs
     id="defs6" /><g
     transform="matrix(1.25,0,0,-1.25,-92.084981,822.93113)"
     inkscape:label="amino-acids"
     inkscape:groupmode="layer"
     id="g10"><path
       style="opacity:0.8;fill:#729fcf;stroke:none"
       d="m 92.547096,551.12982 c -4.331706,0.35608 2.622109,0.6625 -1.7864,-2.66518 -6.939809,-5.23838 8.877547,-13.44439 13.936024,-16.18306 6.66433,-3.60808 15.34757,-9.02544 22.3967,-3.5996 6.74314,5.19032 15.62855,10.28031 24.18962,6.11447 8.39519,-4.08511 16.90392,-10.89606 26.4651,-9.09768 9.1301,1.7173 15.66667,11.93108 25.9169,8.73301 8.83175,-2.7555 16.42728,-10.08276 26.8452,-9.43738 9.24334,0.57262 15.31184,13.87511 24.67141,9.06527 7.21349,-3.70697 15.19228,-12.88552 23.87083,-8.7117 7.56766,3.63955 14.48797,12.65093 23.50533,9.17082 7.56754,-2.92058 14.49603,-7.20585 22.30515,-9.73132 11.57284,-3.74266 16.60979,6.93606 24.22751,12.51867 10.4241,7.63926 -3.36595,14.18009 -9.80136,8.06946 -7.96985,-7.56763 -18.36176,-2.64491 -26.05279,1.60146 -7.35003,4.05809 -15.94091,7.28974 -23.5202,4.53586 -6.76018,-2.45626 -9.30791,-11.83377 -18.4259,-9.28186 -8.60951,2.4096 -15.68313,8.27138 -23.90472,11.865 -11.54592,5.04668 -15.03596,-9.41735 -24.63572,-11.15572 -8.22531,-1.48948 -14.06316,6.83873 -22.23108,8.78272 -9.28453,2.20975 -19.20987,1.7629 -26.46354,-5.08311 -7.48459,-7.06395 -17.24659,0.72655 -24.32685,5.01565 -7.20418,4.36417 -16.67523,3.71009 -23.36593,-1.11904 -7.11241,-5.1335 -17.0161,-6.58313 -24.40345,-2.07469 -2.839976,1.73322 -6.084027,2.3944 -9.411834,2.66795 z"
       id="path11581"
       inkscape:connector-curvature="0"
       sodipodi:nodetypes="sssssssssssssssssssssssss" /><text
       id="text54"
       transform="matrix(1,0,0,-1,114.5,528.2)"><tspan
         id="tspan56"
         y="0"
         x="0"
         style="font-size:10px;font-variant:normal;font-weight:normal;writing-mode:lr-tb;fill:#000000;fill-opacity:1;fill-rule:nonzero;stroke:none;font-family:ArialMT;-inkscape-font-specification:ArialMT">N</tspan><tspan
         id="tspan58"
         y="8.3000002"
         x="0"
         style="font-size:10px;font-variant:normal;font-weight:normal;writing-mode:lr-tb;fill:#000000;fill-opacity:1;fill-rule:nonzero;stroke:none;font-family:ArialMT;-inkscape-font-specification:ArialMT">H</tspan></text>
<g
       transform="translate(143.6,547.1)"
       id="g60"><path
         id="path62"
         style="fill:#000000;fill-opacity:1;fill-rule:evenodd;stroke:none"
         d="m 0,0 0.5,-0.3 0,-0.6 -20.5,-11.8 -0.5,0.9 L 0,0"
         inkscape:connector-curvature="0" /></g><g
       transform="translate(170.1,532.4)"
       id="g64"><path
         id="path66"
         style="fill:#000000;fill-opacity:1;fill-rule:evenodd;stroke:none"
         d="m 0,0 0,-1.2 -26,15 0,0.6 0.5,0.3 L 0,0"
         inkscape:connector-curvature="0" /></g><text
       id="text68"
       transform="matrix(1,0,0,-1,192.4,551.6)"><tspan
         id="tspan70"
         y="0"
         x="0"
         style="font-size:10px;font-variant:normal;font-weight:normal;writing-mode:lr-tb;fill:#000000;fill-opacity:1;fill-rule:nonzero;stroke:none;font-family:ArialMT;-inkscape-font-specification:ArialMT">H</tspan><tspan
         id="tspan72"
         y="8.3999996"
         x="0"
         style="font-size:10px;font-variant:normal;font-weight:normal;writing-mode:lr-tb;fill:#000000;fill-opacity:1;fill-rule:nonzero;stroke:none;font-family:ArialMT;-inkscape-font-specification:ArialMT">N</tspan></text>
<g
       transform="translate(190.4,544.1)"
       id="g74"><path
         id="path76"
         style="fill:#000000;fill-opacity:1;fill-rule:evenodd;stroke:none"
         d="m 0,0 0.5,-0.8 -20.8,-12.1 0,1.2 L 0,0"
         inkscape:connector-curvature="0" /></g><g
       transform="translate(222,532.4)"
       id="g78"><path
         id="path80"
         style="fill:#000000;fill-opacity:1;fill-rule:evenodd;stroke:none"
         d="m 0,0 0,-0.6 -0.5,-0.3 -20.4,11.8 0.5,0.9 L 0,0"
         inkscape:connector-curvature="0" /></g><g
       transform="translate(248,547.4)"
       id="g82"><path
         id="path84"
         style="fill:#000000;fill-opacity:1;fill-rule:evenodd;stroke:none"
         d="m 0,0 0,-1.2 -25.5,-14.7 -0.5,0.3 0,0.6 26,15"
         inkscape:connector-curvature="0" /></g><text
       id="text86"
       transform="matrix(1,0,0,-1,270.4,528.2)"><tspan
         id="tspan88"
         y="0"
         x="0"
         style="font-size:10px;font-variant:normal;font-weight:normal;writing-mode:lr-tb;fill:#000000;fill-opacity:1;fill-rule:nonzero;stroke:none;font-family:ArialMT;-inkscape-font-specification:ArialMT">N</tspan><tspan
         id="tspan90"
         y="8.3000002"
         x="0"
         style="font-size:10px;font-variant:normal;font-weight:normal;writing-mode:lr-tb;fill:#000000;fill-opacity:1;fill-rule:nonzero;stroke:none;font-family:ArialMT;-inkscape-font-specification:ArialMT">H</tspan></text>
<path
       style="opacity:0.65;fill:#ef2929;stroke:none"
       d="m 164.31315,635.75787 c -6.51838,-8.8281 -5.42124,-18.348 -7.12305,-26.45985 -1.70181,-8.11185 -3.83552,-14.26806 -11.35122,-19.47656 -7.5157,-5.2085 -14.26167,-9.61009 -13.02268,-16.59175 1.23899,-6.98166 4.63804,-12.28212 11.93742,-10.93218 7.29938,1.34994 10.64361,6.84866 16.06546,9.73918 5.42185,2.89052 7.88778,5.92206 15.0335,3.13619 7.14572,-2.78587 13.55242,-7.6313 22.7449,-7.74123 9.19248,-0.10993 18.0269,3.56283 23.81306,8.10403 5.78617,4.5412 10.90948,10.22041 12.52287,16.9781 1.6134,6.75769 2.21164,12.90177 1.30163,20.73613 -0.91001,7.83436 -3.06706,16.64594 -7.36799,22.75889 -4.30093,6.11295 -7.46534,6.84797 -13.69358,9.75542 -6.22824,2.90745 -19.97559,4.90921 -23.78715,4.53592 -3.81156,-0.37329 -20.55479,-5.71419 -27.07317,-14.54229 z"
       id="path11622"
       inkscape:connector-curvature="0"
       sodipodi:nodetypes="zzzzzzzzzzzzzzz" /><g
       transform="translate(268.9,535.3)"
       id="g92"><path
         id="path94"
         style="fill:#000000;fill-opacity:1;fill-rule:evenodd;stroke:none"
         d="m 0,0 -0.5,-0.9 -20.4,11.8 0,1.2 L 0,0"
         inkscape:connector-curvature="0" /></g><path
       style="opacity:0.65;fill:#ef2929;stroke:none"
       d="m 212.97697,516.12802 c -0.15551,-6.53814 -1.13954,-13.18498 -0.65647,-19.6549 1.72282,-5.65494 5.82967,-10.36512 11.45896,-12.31292 6.85183,-3.80956 14.33675,-6.16158 21.59087,-9.03752 6.50524,-0.67978 14.99834,-3.29031 20.06429,2.34084 4.74594,6.01424 0.69701,14.14858 -4.95504,17.85602 -6.45651,5.44408 -15.34782,4.79564 -22.79119,7.62417 -6.2743,2.71585 -5.16735,10.37506 -8.90069,14.86534 -3.55463,3.00417 -14.20351,3.08195 -15.81073,-1.68103 z"
       id="path11624"
       inkscape:connector-curvature="0" /><g
       transform="translate(299.5,547.1)"
       id="g96"><path
         id="path98"
         style="fill:#000000;fill-opacity:1;fill-rule:evenodd;stroke:none"
         d="m 0,0 0.5,-0.3 0,-0.6 -20.5,-11.8 -0.5,0.9 L 0,0"
         inkscape:connector-curvature="0" /></g><path
       style="opacity:0.65;fill:#ef2929;stroke:none"
       d="m 315.01607,628.25239 c -4.81935,-6.33997 -1.26212,-19.35044 -5.35865,-26.12534 -4.09653,-6.7749 -6.67546,-5.02978 -11.29731,-8.65772 -4.62185,-3.62794 -11.02297,-11.61258 -10.12707,-17.88188 0.8959,-6.2693 8.14067,-12.82863 15.34511,-11.41333 7.20444,1.4153 9.44098,11.07411 20.65533,11.27369 11.21435,0.19958 27.36408,-8.90023 37.14132,-7.10864 9.77724,1.79159 15.05796,7.61811 19.00239,14.71169 3.94443,7.09358 6.8992,13.2409 6.25774,23.4439 -0.64146,10.203 -7.19818,21.15988 -17.47025,27.90544 -10.27207,6.74556 -31.25168,9.27362 -40.00381,4.79441 -8.75213,-4.47921 -9.32545,-4.60226 -14.1448,-10.94222 z"
       id="path11626"
       inkscape:connector-curvature="0"
       sodipodi:nodetypes="zzzzzzzzzzzz" /><g
       transform="translate(325.9,532.4)"
       id="g100"><path
         id="path102"
         style="fill:#000000;fill-opacity:1;fill-rule:evenodd;stroke:none"
         d="m 0,0 0,-1.2 -25.9,15 0,0.6 0.5,0.3 L 0,0"
         inkscape:connector-curvature="0" /></g><g
       transform="translate(351.7,547.2)"
       id="g104"><path
         id="path106"
         style="fill:#000000;fill-opacity:1;fill-rule:evenodd;stroke:none"
         d="m 0,0 0.5,-0.8 -26.3,-15.2 0,1.2 L 0,0"
         inkscape:connector-curvature="0" /></g><text
       id="text108"
       transform="matrix(1,0,0,-1,322.1,498.2)"><tspan
         id="tspan110"
         y="0"
         x="0"
         style="font-size:10px;font-variant:normal;font-weight:normal;writing-mode:lr-tb;fill:#000000;fill-opacity:1;fill-rule:nonzero;stroke:none;font-family:ArialMT;-inkscape-font-specification:ArialMT">O</tspan></text>
<path
       id="path112"
       style="fill:#000000;fill-opacity:1;fill-rule:nonzero;stroke:none"
       d="m 327.2,507.4 1,0 0,25.4 -1,0 0,-25.4 z"
       inkscape:connector-curvature="0" /><path
       id="path114"
       style="fill:#000000;fill-opacity:1;fill-rule:nonzero;stroke:none"
       d="m 323.6,507.4 1,0 0,25.4 -1,0 0,-25.4 z"
       inkscape:connector-curvature="0" /><text
       id="text116"
       transform="matrix(1,0,0,-1,244.1,573.2)"><tspan
         id="tspan118"
         y="0"
         x="0"
         style="font-size:10px;font-variant:normal;font-weight:normal;writing-mode:lr-tb;fill:#000000;fill-opacity:1;fill-rule:nonzero;stroke:none;font-family:ArialMT;-inkscape-font-specification:ArialMT">O</tspan></text>
<path
       id="path120"
       style="fill:#000000;fill-opacity:1;fill-rule:nonzero;stroke:none"
       d="m 245.7,545.8 1,0 0,25.4 -1,0 0,-25.4 z"
       inkscape:connector-curvature="0" /><path
       id="path122"
       style="fill:#000000;fill-opacity:1;fill-rule:nonzero;stroke:none"
       d="m 249.3,545.8 0.99998,0 0,25.4 -0.99998,0 0,-25.4 z"
       inkscape:connector-curvature="0" /><text
       id="text124"
       transform="matrix(1,0,0,-1,166.2,498.2)"><tspan
         id="tspan126"
         y="0"
         x="0"
         style="font-size:10px;font-variant:normal;font-weight:normal;writing-mode:lr-tb;fill:#000000;fill-opacity:1;fill-rule:nonzero;stroke:none;font-family:ArialMT;-inkscape-font-specification:ArialMT">O</tspan></text>
<path
       id="path128"
       style="fill:#000000;fill-opacity:1;fill-rule:nonzero;stroke:none"
       d="m 171.4,507.4 1,0 0,25.4 -1,0 0,-25.4 z"
       inkscape:connector-curvature="0" /><path
       id="path130"
       style="fill:#000000;fill-opacity:1;fill-rule:nonzero;stroke:none"
       d="m 167.8,507.4 1,0 0,25.4 -1,0 0,-25.4 z"
       inkscape:connector-curvature="0" /><g
       transform="translate(143.6,577.1)"
       id="g132"><path
         id="path134"
         style="fill:#000000;fill-opacity:1;fill-rule:evenodd;stroke:none"
         d="M 0,0 1,-0.6 1,-30 0.5,-30.3 0,-30 0,0"
         inkscape:connector-curvature="0" /></g><g
       transform="translate(222.5,502.1)"
       id="g136"><path
         id="path138"
         style="fill:#000000;fill-opacity:1;fill-rule:evenodd;stroke:none"
         d="m 0,0 -1,-0.6 0,30 0.5,0.3 L 0,29.4 0,0"
         inkscape:connector-curvature="0" /></g><text
       id="text140"
       transform="matrix(1,0,0,-1,244.1,483.2)"><tspan
         id="tspan142"
         sodipodi:role="line"
         y="0"
         x="0 7.802"
         style="font-size:10px;font-variant:normal;font-weight:normal;writing-mode:lr-tb;fill:#000000;fill-opacity:1;fill-rule:nonzero;stroke:none;font-family:ArialMT;-inkscape-font-specification:ArialMT">OH</tspan></text>
<g
       transform="translate(243.4,490)"
       id="g144"><path
         id="path146"
         style="fill:#000000;fill-opacity:1;fill-rule:evenodd;stroke:none"
         d="m 0,0 -0.5,-0.9 -21.4,12.4 1,0.6 L 0,0"
         inkscape:connector-curvature="0" /></g><g
       transform="translate(299.5,577.1)"
       id="g148"><path
         id="path150"
         style="fill:#000000;fill-opacity:1;fill-rule:evenodd;stroke:none"
         d="M 0,0 1,-0.6 1,-30 0.5,-30.3 0,-30 0,0"
         inkscape:connector-curvature="0" /></g><g
       transform="translate(325.5,592.1)"
       id="g152"><path
         id="path154"
         style="fill:#000000;fill-opacity:1;fill-rule:evenodd;stroke:none"
         d="M 0,0 0.4,-0.3 0.5,-0.9 -25,-15.6 -26,-15 0,0"
         inkscape:connector-curvature="0" /></g><g
       transform="translate(169.6,592.1)"
       id="g156"><path
         id="path158"
         style="fill:#000000;fill-opacity:1;fill-rule:evenodd;stroke:none"
         d="M 0,0 0.5,-0.3 0.5,-0.9 -25,-15.6 -26,-15 0,0"
         inkscape:connector-curvature="0" /></g><g
       transform="translate(196,577.4)"
       id="g160"><path
         id="path162"
         style="fill:#000000;fill-opacity:1;fill-rule:evenodd;stroke:none"
         d="m 0,0 0,-1.2 -25.9,15 0,0.6 0.5,0.3 L 0,0"
         inkscape:connector-curvature="0" /></g><g
       transform="translate(196.3,581.4)"
       id="g164"><path
         id="path166"
         style="fill:#000000;fill-opacity:1;fill-rule:evenodd;stroke:none"
         d="M 0,0 -0.5,-0.9 -22.9,12 -22.4,12.9 0,0"
         inkscape:connector-curvature="0" /></g><g
       transform="translate(221.5,592.1)"
       id="g168"><path
         id="path170"
         style="fill:#000000;fill-opacity:1;fill-rule:evenodd;stroke:none"
         d="m 0,0 1,-0.6 -26.5,-15.3 0,1.2 L 0,0"
         inkscape:connector-curvature="0" /></g><g
       transform="translate(221.5,621.5)"
       id="g172"><path
         id="path174"
         style="fill:#000000;fill-opacity:1;fill-rule:evenodd;stroke:none"
         d="M 0,0 1,0.6 1,-30 0,-29.4 0,0"
         inkscape:connector-curvature="0" /></g><path
       id="path176"
       style="fill:#000000;fill-opacity:1;fill-rule:nonzero;stroke:none"
       d="m 217.9,593.9 1,0 0,25.8 -1,0 0,-25.8 z"
       inkscape:connector-curvature="0" /><g
       transform="translate(196,636.2)"
       id="g178"><path
         id="path180"
         style="fill:#000000;fill-opacity:1;fill-rule:evenodd;stroke:none"
         d="m 0,0 0,1.2 26.5,-15.3 -1,-0.6 L 0,0"
         inkscape:connector-curvature="0" /></g><g
       transform="translate(170.6,621.5)"
       id="g182"><path
         id="path184"
         style="fill:#000000;fill-opacity:1;fill-rule:evenodd;stroke:none"
         d="m 0,0 -1,0.6 26.4,15.3 0,-1.2 L 0,0"
         inkscape:connector-curvature="0" /></g><g
       transform="translate(173.9,619.3)"
       id="g186"><path
         id="path188"
         style="fill:#000000;fill-opacity:1;fill-rule:evenodd;stroke:none"
         d="M 0,0 -0.5,0.9 21.9,13.8 22.4,12.9 0,0"
         inkscape:connector-curvature="0" /></g><g
       transform="translate(170.6,592.1)"
       id="g190"><path
         id="path192"
         style="fill:#000000;fill-opacity:1;fill-rule:evenodd;stroke:none"
         d="M 0,0 -0.5,-0.3 -1,0 -1,30 0,29.4 0,0"
         inkscape:connector-curvature="0" /></g><text
       id="text194"
       transform="matrix(1,0,0,-1,369.8,598.3)"><tspan
         id="tspan196"
         sodipodi:role="line"
         y="0"
         x="0 7.198"
         style="font-size:10px;font-variant:normal;font-weight:normal;writing-mode:lr-tb;fill:#000000;fill-opacity:1;fill-rule:nonzero;stroke:none;font-family:ArialMT;-inkscape-font-specification:ArialMT">NH</tspan><tspan
         id="tspan198"
         y="-19.799999"
         x="-44.299999"
         style="font-size:10px;font-variant:normal;font-weight:normal;writing-mode:lr-tb;fill:#000000;fill-opacity:1;fill-rule:nonzero;stroke:none;font-family:ArialMT;-inkscape-font-specification:ArialMT">N</tspan></text>
<g
       transform="translate(353.2,580.2)"
       id="g200"><path
         id="path202"
         style="fill:#000000;fill-opacity:1;fill-rule:evenodd;stroke:none"
         d="m 0,0 0.3,-1.2 -27.5,12.2 -0.1,0.6 0.6,0.3 L 0,0"
         inkscape:connector-curvature="0" /></g><g
       transform="translate(352.6,584.4)"
       id="g204"><path
         id="path206"
         style="fill:#000000;fill-opacity:1;fill-rule:evenodd;stroke:none"
         d="M 0,0 -0.4,-0.9 -23,9.2 -22.6,10.1 0,0"
         inkscape:connector-curvature="0" /></g><g
       transform="translate(368.7,597.3)"
       id="g208"><path
         id="path210"
         style="fill:#000000;fill-opacity:1;fill-rule:evenodd;stroke:none"
         d="m 0,0 0.7,-0.6 -15.9,-17.7 -0.3,1.2 L 0,0"
         inkscape:connector-curvature="0" /></g><g
       transform="translate(358.2,627.3)"
       id="g212"><path
         id="path214"
         style="fill:#000000;fill-opacity:1;fill-rule:evenodd;stroke:none"
         d="m 0,0 0.5,1.1 12,-20.7 -0.9,-0.5 L 0,0"
         inkscape:connector-curvature="0" /></g><g
       transform="translate(334.4,622.2)"
       id="g216"><path
         id="path218"
         style="fill:#000000;fill-opacity:1;fill-rule:evenodd;stroke:none"
         d="M 0,0 -0.3,1 24.3,6.2 23.8,5.1 0,0"
         inkscape:connector-curvature="0" /></g><g
       transform="translate(335.1,618.7)"
       id="g220"><path
         id="path222"
         style="fill:#000000;fill-opacity:1;fill-rule:evenodd;stroke:none"
         d="M 0,0 -0.2,1 21.4,5.6 21.6,4.6 0,0"
         inkscape:connector-curvature="0" /></g><g
       transform="translate(326.5,592.1)"
       id="g224"><path
         id="path226"
         style="fill:#000000;fill-opacity:1;fill-rule:evenodd;stroke:none"
         d="M 0,0 -0.6,-0.3 -1,0 2.1,24 3.1,23.9 0,0"
         inkscape:connector-curvature="0" /></g><g
       transform="translate(91.9,546.4)"
       id="g266"><path
         id="path268"
         style="fill:#000000;fill-opacity:1;fill-rule:evenodd;stroke:none"
         d="M 0,0 0.5,0.8 21.1,-11.1 20.6,-12 0,0"
         inkscape:connector-curvature="0" /></g><g
       id="g11595"><path
         sodipodi:nodetypes="cccccccccccsscsccscccscccccccccccccccccccscssscsccccccccscccccsccsccsscccssssscscccccccscccccccccsscsssscccccccccccccccssccsssscccsssccccscccccccccccccccssscsssccccccccccccccccccscccsccscscscccccsccccccc"
         inkscape:connector-curvature="0"
         style="fill:#ffffff;stroke:none"
         d="m 91.635467,530.71114 c -0.0468,0.0827 -0.09356,0.16544 -0.139905,0.24791 -0.04637,0.0825 -0.09225,0.1647 -0.137307,0.24642 -0.04507,0.0817 -0.08925,0.16296 -0.132163,0.24345 -0.04291,0.0805 -0.08455,0.16025 -0.124525,0.23904 -0.03996,0.0788 -0.07824,0.1566 -0.11447,0.23323 -0.03624,0.0766 -0.0704,0.15207 -0.102155,0.22612 -0.03173,0.074 -0.06109,0.1467 -0.08769,0.21777 -0.02662,0.0711 -0.05046,0.14056 -0.07129,0.20831 -0.02082,0.0677 -0.03862,0.13372 -0.05313,0.19781 -0.0145,0.0641 -0.02571,0.12627 -0.03345,0.18646 -0.0077,0.0602 -0.01194,0.11832 -0.0125,0.17435 -5.57e-4,0.056 0.0026,0.10992 0.0096,0.16161 0.007,0.0517 0.01768,0.10122 0.03236,0.14846 0.0146,0.0473 0.03318,0.0923 0.05558,0.13505 0.02239,0.0428 0.04882,0.0833 0.0793,0.12136 0.03019,0.0383 0.06444,0.0742 0.102512,0.10796 0.03798,0.0338 0.07995,0.0653 0.125549,0.0947 0.0456,0.0294 0.09493,0.0566 0.147893,0.0817 0.05288,0.0252 0.109478,0.0482 0.169335,0.0694 0.05989,0.0211 0.123161,0.0403 0.189618,0.0577 0.06647,0.0173 0.136013,0.0329 0.208462,0.0468 0.07245,0.0139 0.147765,0.0261 0.225644,0.0369 0.07791,0.0107 0.158305,0.02 0.240956,0.028 0.08267,0.008 0.16751,0.0147 0.254214,0.0204 0.08674,0.006 0.175253,0.0103 0.265248,0.014 0.09003,0.004 0.181453,0.007 0.273942,0.009 0.09246,0.002 0.186018,0.004 0.280161,0.005 0.09419,10e-4 0.18891,0.002 0.283858,0.003 0.09497,8.8e-4 0.190079,0.002 0.284967,0.003 0.09488,9.4e-4 0.189525,0.002 0.283486,0.003 0.09393,10e-4 0.187247,0.003 0.279433,0.006 0.0922,0.002 0.183263,0.006 0.272843,0.01 0.0896,0.004 0.177642,0.009 0.263818,0.0148 0.08613,0.006 0.170446,0.013 0.252457,0.0214 0.08197,0.008 0.161742,0.018 0.238885,0.0292 0.07713,0.0112 0.151671,0.0239 0.223298,0.0382 0.07158,0.0144 0.140334,0.0304 0.205864,0.0483 0.06552,0.0179 0.127838,0.0376 0.186803,0.0593 0.05894,0.0217 0.114414,0.0454 0.166347,0.0711 0.05192,0.0257 0.100212,0.0536 0.144689,0.0836 0.04456,0.03 0.08532,0.0622 0.122258,0.0966 0.03694,0.0344 0.06999,0.071 0.09913,0.10991 0.02932,0.0388 0.05431,0.0801 0.07584,0.12335 0.02153,0.0433 0.03872,0.0891 0.05228,0.13696 0.01356,0.0479 0.02322,0.098 0.02907,0.15036 0.0059,0.0523 0.0079,0.10687 0.0064,0.16346 -0.0016,0.0566 -0.0068,0.11537 -0.01553,0.1761 -0.0087,0.0607 -0.02094,0.12352 -0.03634,0.18812 -0.01545,0.0646 -0.03411,0.13113 -0.05582,0.19938 -0.02169,0.0682 -0.04637,0.1382 -0.07375,0.20972 -0.0274,0.0715 -0.05745,0.1446 -0.08988,0.21904 -0.03243,0.0744 -0.06724,0.15025 -0.104043,0.22721 -0.03684,0.077 -0.07563,0.15509 -0.116055,0.23415 -0.04039,0.079 -0.08249,0.15905 -0.125763,0.23975 -0.04325,0.0807 -0.08777,0.1621 -0.133055,0.24396 -0.04533,0.0819 -0.09138,0.16419 -0.137835,0.24672 -0.04646,0.0825 -0.09329,0.16529 -0.140061,0.24801 -0.0468,0.0827 -0.09347,0.1654 -0.139689,0.24779 -0.0462,0.0824 -0.09193,0.16451 -0.136735,0.24609 -0.04481,0.0816 -0.08867,0.16262 -0.131219,0.2429 -0.04256,0.0803 -0.08375,0.15978 -0.123226,0.23829 -0.03944,0.0785 -0.07722,0.15601 -0.11285,0.2323 -0.03563,0.0763 -0.06916,0.15135 -0.100216,0.225 -0.03104,0.0736 -0.05966,0.14587 -0.08547,0.21649 -0.02584,0.0706 -0.04884,0.13962 -0.0688,0.20686 -0.01996,0.0672 -0.03688,0.13272 -0.05041,0.19625 -0.01355,0.0635 -0.0238,0.12517 -0.03052,0.18476 -0.0067,0.0596 -0.0099,0.11712 -0.0094,0.17255 4.83e-4,0.0554 0.0048,0.10868 0.01279,0.15976 0.008,0.0511 0.01993,0.0999 0.03566,0.14656 0.01547,0.0468 0.03543,0.091 0.05895,0.13311 0.02356,0.0421 0.05085,0.0821 0.08242,0.11955 0.03105,0.0378 0.0667,0.0729 0.105803,0.10606 0.03911,0.0331 0.08211,0.064 0.128753,0.0928 0.04664,0.0288 0.09709,0.0554 0.15101,0.08 0.05392,0.0246 0.11147,0.0471 0.172315,0.0677 0.06084,0.0206 0.125066,0.0392 0.192406,0.0561 0.06734,0.0168 0.137762,0.0319 0.211017,0.0453 0.07323,0.0134 0.149358,0.0252 0.227957,0.0355 0.0786,0.0103 0.159707,0.0192 0.242973,0.0269 0.08328,0.008 0.168714,0.014 0.255938,0.0194 0.08726,0.005 0.176231,0.01 0.266633,0.0132 0.09038,0.004 0.182207,0.006 0.274982,0.008 0.0928,0.002 0.186537,0.004 0.280853,0.005 0.09427,10e-4 0.189178,0.002 0.28417,0.003 0.09497,8.8e-4 0.190114,0.002 0.284915,0.003 0.09479,9.9e-4 0.189308,0.002 0.283062,0.004 0.09375,0.002 0.186779,0.004 0.278645,0.006 0.09185,0.003 0.182562,0.006 0.271708,0.0103 0.08916,0.004 0.176707,0.009 0.262329,0.0157 0.08561,0.006 0.169294,0.0137 0.250646,0.0224 0.08137,0.009 0.160392,0.0188 0.236781,0.0304 0.07643,0.0116 0.15013,0.0247 0.220917,0.0396 0.0708,0.0148 0.138619,0.0314 0.203242,0.0498 0.0646,0.0184 0.12602,0.0387 0.18395,0.0609 0.058,0.0222 0.11242,0.0465 0.16333,0.0728 0.0509,0.0263 0.0981,0.0548 0.14157,0.0854 0.0434,0.0306 0.0832,0.0634 0.11896,0.0985 0.0358,0.035 0.0678,0.0723 0.0958,0.1118 0.0284,0.0393 0.0526,0.0811 0.0724,0.12536 0.0198,0.0443 0.0365,0.0904 0.0489,0.13891 0.0124,0.0485 0.021,0.0993 0.0258,0.15226 0.005,0.0529 0.006,0.10807 0.003,0.1653 -0.003,0.0572 -0.009,0.11657 -0.0186,0.17787 -0.01,0.0613 -0.0229,0.12462 -0.0392,0.18978 -0.0163,0.0651 -0.0359,0.13217 -0.0585,0.20091 -0.0225,0.0687 -0.048,0.13916 -0.0762,0.21112 -0.0281,0.0719 -0.0589,0.14545 -0.092,0.22027 -0.0331,0.0748 -0.0685,0.151 -0.1059,0.22829 -0.0374,0.0773 -0.0767,0.1557 -0.11758,0.23502 -0.0409,0.0793 -0.0833,0.15955 -0.12696,0.24045 -0.0436,0.0809 -0.0884,0.16245 -0.13389,0.24444 -0.0455,0.082 -0.0918,0.1644 -0.138314,0.247 -0.04654,0.0826 -0.09342,0.16537 -0.140165,0.24807 -0.04672,0.0827 -0.09336,0.16533 -0.13942,0.24763 -0.04611,0.0823 -0.09157,0.1643 -0.136103,0.24573 -0.04455,0.0814 -0.08807,0.16227 -0.130232,0.24233 -0.04213,0.08 -0.08291,0.1593 -0.121883,0.23751 -0.03901,0.0782 -0.07616,0.1554 -0.111188,0.23134 -0.03502,0.0759 -0.06788,0.15061 -0.09822,0.22385 -0.03035,0.0732 -0.05819,0.14503 -0.08321,0.21518 -0.02498,0.0701 -0.0472,0.13868 -0.06627,0.20541 -0.01909,0.0667 -0.03506,0.13167 -0.04766,0.19465 -0.0126,0.063 -0.0219,0.12407 -0.02756,0.18306 -0.0057,0.059 -0.0079,0.11597 -0.0063,0.17076 0.0016,0.0548 0.0069,0.10747 0.016,0.1579 0.0091,0.0504 0.0221,0.0987 0.03895,0.14466 0.0172,0.0458 0.0376,0.0897 0.06233,0.13116 0.02468,0.0415 0.05345,0.0806 0.0858,0.11761 0.03279,0.0368 0.06886,0.0717 0.109094,0.10415 0.04023,0.0325 0.08428,0.0628 0.131958,0.091 0.04768,0.0282 0.09917,0.0542 0.154128,0.0782 0.05496,0.024 0.113462,0.0459 0.175267,0.0659 0.0618,0.02 0.126972,0.0381 0.19516,0.0545 0.06821,0.0163 0.139486,0.0309 0.213548,0.0439 0.0741,0.0129 0.15091,0.0243 0.23022,0.0342 0.0793,0.01 0.16108,0.0184 0.24496,0.0257 0.0839,0.007 0.16988,0.0133 0.2576,0.0184 0.0877,0.005 0.17719,0.009 0.26798,0.0124 0.0908,0.003 0.18293,0.006 0.27597,0.008 0.0931,0.002 0.18702,0.003 0.28148,0.005 0.0944,10e-4 0.18942,0.002 0.28444,0.003 0.0951,8.3e-4 0.1901,0.002 0.28481,0.003 0.0947,0.001 0.18905,0.002 0.28259,0.004 0.0936,0.002 0.18628,0.004 0.2778,0.007 0.0915,0.003 0.18183,0.006 0.27052,0.011 0.0887,0.004 0.17573,0.01 0.2608,0.0166 0.0851,0.007 0.1681,0.0144 0.24879,0.0235 0.0807,0.009 0.15901,0.0196 0.23464,0.0317 0.0756,0.012 0.14855,0.0257 0.2185,0.041 0.0699,0.0153 0.13688,0.0324 0.20057,0.0513 0.0637,0.0189 0.12411,0.0398 0.18109,0.0626 0.057,0.0228 0.11043,0.0477 0.16027,0.0746 0.0498,0.0269 0.096,0.056 0.13837,0.0873 0.0424,0.0312 0.081,0.0647 0.11568,0.10035 0.0347,0.0357 0.0656,0.0736 0.0925,0.11376 0.0267,0.0403 0.05,0.0826 0.0689,0.12736 0.0189,0.0448 0.0343,0.0916 0.0456,0.14081 0.0113,0.0492 0.0188,0.10057 0.0225,0.15415 0.004,0.0536 0.004,0.10932 6e-5,0.16711 -0.004,0.0578 -0.0109,0.11772 -0.0216,0.17961 -0.0107,0.0619 -0.0248,0.12572 -0.0421,0.19142 -0.0173,0.0657 -0.0377,0.13323 -0.0611,0.20243 -0.0233,0.0692 -0.0497,0.1401 -0.0786,0.21249 -0.0289,0.0724 -0.0604,0.1463 -0.0941,0.2215 -0.0337,0.0752 -0.0698,0.15172 -0.10771,0.22932 -0.0379,0.0776 -0.0777,0.15632 -0.11907,0.23589 -0.0413,0.0796 -0.0841,0.16002 -0.12809,0.2411 -0.0439,0.0811 -0.089,0.16279 -0.13468,0.2449 -0.0457,0.0821 -0.0921,0.1646 -0.13874,0.24724 -0.0466,0.0826 -0.0935,0.16542 -0.14022,0.2481 -0.0467,0.0827 -0.0932,0.16524 -0.13911,0.24746 -0.0459,0.0822 -0.0912,0.16406 -0.13541,0.24532 -0.0442,0.0812 -0.0874,0.16191 -0.12919,0.24173 -0.0418,0.0798 -0.082,0.1588 -0.1205,0.23671 -0.0385,0.0779 -0.0751,0.15477 -0.10946,0.23035 -0.0344,0.0756 -0.0666,0.14986 -0.0962,0.22268 -0.0297,0.0728 -0.0567,0.14416 -0.0809,0.21385 -0.0242,0.0697 -0.0455,0.13771 -0.0637,0.20393 -0.0182,0.0662 -0.0332,0.13062 -0.0449,0.19305 -0.0116,0.0624 -0.0199,0.12292 -0.0246,0.18133 -0.005,0.0584 -0.006,0.11477 -0.003,0.16896 0.003,0.0542 0.009,0.10622 0.0192,0.15606 0.0103,0.0498 0.0243,0.0974 0.0422,0.14275 0.0181,0.0453 0.0396,0.0886 0.0654,0.12936 0.0259,0.0408 0.0552,0.0796 0.0892,0.11566 0.0336,0.0363 0.0711,0.0704 0.11239,0.10226 0.0413,0.0319 0.0864,0.0615 0.13516,0.0891 0.0488,0.0275 0.10125,0.053 0.15725,0.0764 0.056,0.0234 0.11545,0.0448 0.17819,0.0643 0.0627,0.0195 0.12879,0.0371 0.19788,0.0529 0.0691,0.0158 0.14119,0.0299 0.21604,0.0424 0.0749,0.0125 0.15244,0.0234 0.23244,0.0329 0.08,0.01 0.16243,0.0177 0.24691,0.0246 0.0845,0.007 0.17101,0.0127 0.25922,0.0175 0.0882,0.005 0.1781,0.009 0.26927,0.0117 0.0912,0.003 0.18361,0.005 0.27692,0.007 0.0933,0.002 0.18746,0.003 0.28205,0.004 0.0946,10e-4 0.18944,0.002 0.28447,0.002 l -9.967197,5.75456 -14.402448,-24.94577 z"
         title="sin(x)"
         id="path10954-9" /><path
         id="path11502-6"
         title="sin(x)"
         d="m 91.635467,530.71114 c -0.0468,0.0827 -0.09356,0.16544 -0.139905,0.24791 -0.04637,0.0825 -0.09225,0.1647 -0.137307,0.24642 -0.04507,0.0817 -0.08925,0.16296 -0.132163,0.24345 -0.04291,0.0805 -0.08455,0.16025 -0.124525,0.23904 -0.03996,0.0788 -0.07824,0.1566 -0.11447,0.23323 -0.03624,0.0766 -0.0704,0.15207 -0.102155,0.22612 -0.03173,0.074 -0.06109,0.1467 -0.08769,0.21777 -0.02662,0.0711 -0.05046,0.14056 -0.07129,0.20831 -0.02082,0.0677 -0.03862,0.13372 -0.05313,0.19781 -0.0145,0.0641 -0.02571,0.12627 -0.03345,0.18646 -0.0077,0.0602 -0.01194,0.11832 -0.0125,0.17435 -5.57e-4,0.056 0.0026,0.10992 0.0096,0.16161 0.007,0.0517 0.01768,0.10122 0.03236,0.14846 0.0146,0.0473 0.03318,0.0923 0.05558,0.13505 0.02239,0.0428 0.04882,0.0833 0.0793,0.12136 0.03019,0.0383 0.06444,0.0742 0.102512,0.10796 0.03798,0.0338 0.07995,0.0653 0.125549,0.0947 0.0456,0.0294 0.09493,0.0566 0.147893,0.0817 0.05288,0.0252 0.109478,0.0482 0.169335,0.0694 0.05989,0.0211 0.123161,0.0403 0.189618,0.0577 0.06647,0.0173 0.136013,0.0329 0.208462,0.0468 0.07245,0.0139 0.147765,0.0261 0.225644,0.0369 0.07791,0.0107 0.158305,0.02 0.240956,0.028 0.08267,0.008 0.16751,0.0147 0.254214,0.0204 0.08674,0.006 0.175253,0.0103 0.265248,0.014 0.09003,0.004 0.181453,0.007 0.273942,0.009 0.09246,0.002 0.186018,0.004 0.280161,0.005 0.09419,10e-4 0.18891,0.002 0.283858,0.003 0.09497,8.8e-4 0.190079,0.002 0.284967,0.003 0.09488,9.4e-4 0.189525,0.002 0.283486,0.003 0.09393,10e-4 0.187247,0.003 0.279433,0.006 0.0922,0.002 0.183263,0.006 0.272843,0.01 0.0896,0.004 0.177642,0.009 0.263818,0.0148 0.08613,0.006 0.170446,0.013 0.252457,0.0214 0.08197,0.008 0.161742,0.018 0.238885,0.0292 0.07713,0.0112 0.151671,0.0239 0.223298,0.0382 0.07158,0.0144 0.140334,0.0304 0.205864,0.0483 0.06552,0.0179 0.127838,0.0376 0.186803,0.0593 0.05894,0.0217 0.114414,0.0454 0.166347,0.0711 0.05192,0.0257 0.100212,0.0536 0.144689,0.0836 0.04456,0.03 0.08532,0.0622 0.122258,0.0966 0.03694,0.0344 0.06999,0.071 0.09913,0.10991 0.02932,0.0388 0.05431,0.0801 0.07584,0.12335 0.02153,0.0433 0.03872,0.0891 0.05228,0.13696 0.01356,0.0479 0.02322,0.098 0.02907,0.15036 0.0059,0.0523 0.0079,0.10687 0.0064,0.16346 -0.0016,0.0566 -0.0068,0.11537 -0.01553,0.1761 -0.0087,0.0607 -0.02094,0.12352 -0.03634,0.18812 -0.01545,0.0646 -0.03411,0.13113 -0.05582,0.19938 -0.02169,0.0682 -0.04637,0.1382 -0.07375,0.20972 -0.0274,0.0715 -0.05745,0.1446 -0.08988,0.21904 -0.03243,0.0744 -0.06724,0.15025 -0.104043,0.22721 -0.03684,0.077 -0.07563,0.15509 -0.116055,0.23415 -0.04039,0.079 -0.08249,0.15905 -0.125763,0.23975 -0.04325,0.0807 -0.08777,0.1621 -0.133055,0.24396 -0.04533,0.0819 -0.09138,0.16419 -0.137835,0.24672 -0.04646,0.0825 -0.09329,0.16529 -0.140061,0.24801 -0.0468,0.0827 -0.09347,0.1654 -0.139689,0.24779 -0.0462,0.0824 -0.09193,0.16451 -0.136735,0.24609 -0.04481,0.0816 -0.08867,0.16262 -0.131219,0.2429 -0.04256,0.0803 -0.08375,0.15978 -0.123226,0.23829 -0.03944,0.0785 -0.07722,0.15601 -0.11285,0.2323 -0.03563,0.0763 -0.06916,0.15135 -0.100216,0.225 -0.03104,0.0736 -0.05966,0.14587 -0.08547,0.21649 -0.02584,0.0706 -0.04884,0.13962 -0.0688,0.20686 -0.01996,0.0672 -0.03688,0.13272 -0.05041,0.19625 -0.01355,0.0635 -0.0238,0.12517 -0.03052,0.18476 -0.0067,0.0596 -0.0099,0.11712 -0.0094,0.17255 4.83e-4,0.0554 0.0048,0.10868 0.01279,0.15976 0.008,0.0511 0.01993,0.0999 0.03566,0.14656 0.01547,0.0468 0.03543,0.091 0.05895,0.13311 0.02356,0.0421 0.05085,0.0821 0.08242,0.11955 0.03105,0.0378 0.0667,0.0729 0.105803,0.10606 0.03911,0.0331 0.08211,0.064 0.128753,0.0928 0.04664,0.0288 0.09709,0.0554 0.15101,0.08 0.05392,0.0246 0.11147,0.0471 0.172315,0.0677 0.06084,0.0206 0.125066,0.0392 0.192406,0.0561 0.06734,0.0168 0.137762,0.0319 0.211017,0.0453 0.07323,0.0134 0.149358,0.0252 0.227957,0.0355 0.0786,0.0103 0.159707,0.0192 0.242973,0.0269 0.08328,0.008 0.168714,0.014 0.255938,0.0194 0.08726,0.005 0.176231,0.01 0.266633,0.0132 0.09038,0.004 0.182207,0.006 0.274982,0.008 0.0928,0.002 0.186537,0.004 0.280853,0.005 0.09427,10e-4 0.189178,0.002 0.28417,0.003 0.09497,8.8e-4 0.190114,0.002 0.284915,0.003 0.09479,9.9e-4 0.189308,0.002 0.283062,0.004 0.09375,0.002 0.186779,0.004 0.278645,0.006 0.09185,0.003 0.182562,0.006 0.271708,0.0103 0.08916,0.004 0.176707,0.009 0.262329,0.0157 0.08561,0.006 0.169294,0.0137 0.250646,0.0224 0.08137,0.009 0.160392,0.0188 0.236781,0.0304 0.07643,0.0116 0.15013,0.0247 0.220917,0.0396 0.0708,0.0148 0.138619,0.0314 0.203242,0.0498 0.0646,0.0184 0.12602,0.0387 0.18395,0.0609 0.058,0.0222 0.11242,0.0465 0.16333,0.0728 0.0509,0.0263 0.0981,0.0548 0.14157,0.0854 0.0434,0.0306 0.0832,0.0634 0.11896,0.0985 0.0358,0.035 0.0678,0.0723 0.0958,0.1118 0.0284,0.0393 0.0526,0.0811 0.0724,0.12536 0.0198,0.0443 0.0365,0.0904 0.0489,0.13891 0.0124,0.0485 0.021,0.0993 0.0258,0.15226 0.005,0.0529 0.006,0.10807 0.003,0.1653 -0.003,0.0572 -0.009,0.11657 -0.0186,0.17787 -0.01,0.0613 -0.0229,0.12462 -0.0392,0.18978 -0.0163,0.0651 -0.0359,0.13217 -0.0585,0.20091 -0.0225,0.0687 -0.048,0.13916 -0.0762,0.21112 -0.0281,0.0719 -0.0589,0.14545 -0.092,0.22027 -0.0331,0.0748 -0.0685,0.151 -0.1059,0.22829 -0.0374,0.0773 -0.0767,0.1557 -0.11758,0.23502 -0.0409,0.0793 -0.0833,0.15955 -0.12696,0.24045 -0.0436,0.0809 -0.0884,0.16245 -0.13389,0.24444 -0.0455,0.082 -0.0918,0.1644 -0.138314,0.247 -0.04654,0.0826 -0.09342,0.16537 -0.140165,0.24807 -0.04672,0.0827 -0.09336,0.16533 -0.13942,0.24763 -0.04611,0.0823 -0.09157,0.1643 -0.136103,0.24573 -0.04455,0.0814 -0.08807,0.16227 -0.130232,0.24233 -0.04213,0.08 -0.08291,0.1593 -0.121883,0.23751 -0.03901,0.0782 -0.07616,0.1554 -0.111188,0.23134 -0.03502,0.0759 -0.06788,0.15061 -0.09822,0.22385 -0.03035,0.0732 -0.05819,0.14503 -0.08321,0.21518 -0.02498,0.0701 -0.0472,0.13868 -0.06627,0.20541 -0.01909,0.0667 -0.03506,0.13167 -0.04766,0.19465 -0.0126,0.063 -0.0219,0.12407 -0.02756,0.18306 -0.0057,0.059 -0.0079,0.11597 -0.0063,0.17076 0.0016,0.0548 0.0069,0.10747 0.016,0.1579 0.0091,0.0504 0.0221,0.0987 0.03895,0.14466 0.0172,0.0458 0.0376,0.0897 0.06233,0.13116 0.02468,0.0415 0.05345,0.0806 0.0858,0.11761 0.03279,0.0368 0.06886,0.0717 0.109094,0.10415 0.04023,0.0325 0.08428,0.0628 0.131958,0.091 0.04768,0.0282 0.09917,0.0542 0.154128,0.0782 0.05496,0.024 0.113462,0.0459 0.175267,0.0659 0.0618,0.02 0.126972,0.0381 0.19516,0.0545 0.06821,0.0163 0.139486,0.0309 0.213548,0.0439 0.0741,0.0129 0.15091,0.0243 0.23022,0.0342 0.0793,0.01 0.16108,0.0184 0.24496,0.0257 0.0839,0.007 0.16988,0.0133 0.2576,0.0184 0.0877,0.005 0.17719,0.009 0.26798,0.0124 0.0908,0.003 0.18293,0.006 0.27597,0.008 0.0931,0.002 0.18702,0.003 0.28148,0.005 0.0944,10e-4 0.18942,0.002 0.28444,0.003 0.0951,8.3e-4 0.1901,0.002 0.28481,0.003 0.0947,0.001 0.18905,0.002 0.28259,0.004 0.0936,0.002 0.18628,0.004 0.2778,0.007 0.0915,0.003 0.18183,0.006 0.27052,0.011 0.0887,0.004 0.17573,0.01 0.2608,0.0166 0.0851,0.007 0.1681,0.0144 0.24879,0.0235 0.0807,0.009 0.15901,0.0196 0.23464,0.0317 0.0756,0.012 0.14855,0.0257 0.2185,0.041 0.0699,0.0153 0.13688,0.0324 0.20057,0.0513 0.0637,0.0189 0.12411,0.0398 0.18109,0.0626 0.057,0.0228 0.11043,0.0477 0.16027,0.0746 0.0498,0.0269 0.096,0.056 0.13837,0.0873 0.0424,0.0312 0.081,0.0647 0.11568,0.10035 0.0347,0.0357 0.0656,0.0736 0.0925,0.11376 0.0267,0.0403 0.05,0.0826 0.0689,0.12736 0.0189,0.0448 0.0343,0.0916 0.0456,0.14081 0.0113,0.0492 0.0188,0.10057 0.0225,0.15415 0.004,0.0536 0.004,0.10932 6e-5,0.16711 -0.004,0.0578 -0.0109,0.11772 -0.0216,0.17961 -0.0107,0.0619 -0.0248,0.12572 -0.0421,0.19142 -0.0173,0.0657 -0.0377,0.13323 -0.0611,0.20243 -0.0233,0.0692 -0.0497,0.1401 -0.0786,0.21249 -0.0289,0.0724 -0.0604,0.1463 -0.0941,0.2215 -0.0337,0.0752 -0.0698,0.15172 -0.10771,0.22932 -0.0379,0.0776 -0.0777,0.15632 -0.11907,0.23589 -0.0413,0.0796 -0.0841,0.16002 -0.12809,0.2411 -0.0439,0.0811 -0.089,0.16279 -0.13468,0.2449 -0.0457,0.0821 -0.0921,0.1646 -0.13874,0.24724 -0.0466,0.0826 -0.0935,0.16542 -0.14022,0.2481 -0.0467,0.0827 -0.0932,0.16524 -0.13911,0.24746 -0.0459,0.0822 -0.0912,0.16406 -0.13541,0.24532 -0.0442,0.0812 -0.0874,0.16191 -0.12919,0.24173 -0.0418,0.0798 -0.082,0.1588 -0.1205,0.23671 -0.0385,0.0779 -0.0751,0.15477 -0.10946,0.23035 -0.0344,0.0756 -0.0666,0.14986 -0.0962,0.22268 -0.0297,0.0728 -0.0567,0.14416 -0.0809,0.21385 -0.0242,0.0697 -0.0455,0.13771 -0.0637,0.20393 -0.0182,0.0662 -0.0332,0.13062 -0.0449,0.19305 -0.0116,0.0624 -0.0199,0.12292 -0.0246,0.18133 -0.005,0.0584 -0.006,0.11477 -0.003,0.16896 0.003,0.0542 0.009,0.10622 0.0192,0.15606 0.0103,0.0498 0.0243,0.0974 0.0422,0.14275 0.0181,0.0453 0.0396,0.0886 0.0654,0.12936 0.0259,0.0408 0.0552,0.0796 0.0892,0.11566 0.0336,0.0363 0.0711,0.0704 0.11239,0.10226 0.0413,0.0319 0.0864,0.0615 0.13516,0.0891 0.0488,0.0275 0.10125,0.053 0.15725,0.0764 0.056,0.0234 0.11545,0.0448 0.17819,0.0643 0.0627,0.0195 0.12879,0.0371 0.19788,0.0529 0.0691,0.0158 0.14119,0.0299 0.21604,0.0424 0.0749,0.0125 0.15244,0.0234 0.23244,0.0329 0.08,0.01 0.16243,0.0177 0.24691,0.0246 0.0845,0.007 0.17101,0.0127 0.25922,0.0175 0.0882,0.005 0.1781,0.009 0.26927,0.0117 0.0912,0.003 0.18361,0.005 0.27692,0.007 0.0933,0.002 0.18746,0.003 0.28205,0.004 0.0946,10e-4 0.18944,0.002 0.28447,0.002"
         style="fill:none;stroke:#000000;stroke-width:1;stroke-linecap:round;stroke-linejoin:miter;stroke-miterlimit:4;stroke-opacity:1;stroke-dasharray:none;stroke-dashoffset:0"
         inkscape:connector-curvature="0"
         sodipodi:nodetypes="cccccccccccsscsccscccscccccccccccccccccccscssscsccccccccscccccsccsccsscccssssscscccccccscccccccccsscsssscccccccccccccccssccsssscccsssccccscccccccccccccccssscsssccccccccccccccccccscccsccscscscccccscccc" /></g><g
       id="g11599"><path
         sodipodi:nodetypes="cccccccccccsscsccscccscccccccccccccccccccscssscsccccccccscccccsccsccsscccssssscscccccccscccccccccsscsssscccccccccccccccssccsssscccsssccccscccccccccccccccssscsssccccccccccccccccccscccsccscscscccccsccccccc"
         inkscape:connector-curvature="0"
         style="fill:#ffffff;stroke:none"
         d="m 335.58594,553.67641 c 0.0951,-8.3e-4 0.19007,-0.002 0.28466,-0.003 0.0946,-10e-4 0.18875,-0.002 0.28206,-0.004 0.0933,-0.002 0.18575,-0.004 0.27691,-0.007 0.0912,-0.003 0.18105,-0.007 0.26927,-0.0117 0.0882,-0.005 0.17475,-0.0105 0.25922,-0.0175 0.0845,-0.007 0.1669,-0.0151 0.24691,-0.0246 0.08,-0.01 0.15759,-0.0204 0.23244,-0.0329 0.0749,-0.0125 0.14696,-0.0266 0.21604,-0.0424 0.0691,-0.0158 0.13512,-0.0334 0.19788,-0.0529 0.0627,-0.0195 0.12221,-0.0409 0.1782,-0.0643 0.056,-0.0234 0.10844,-0.0488 0.15724,-0.0764 0.0488,-0.0275 0.0939,-0.0572 0.13516,-0.0891 0.0413,-0.0319 0.0788,-0.0659 0.11239,-0.10226 0.0336,-0.0363 0.0633,-0.0749 0.0892,-0.11566 0.0258,-0.0408 0.0477,-0.0839 0.0654,-0.12935 0.0181,-0.0453 0.0321,-0.0929 0.0422,-0.14276 0.0103,-0.0498 0.0166,-0.10187 0.0192,-0.15606 0.003,-0.0542 0.002,-0.11052 -0.003,-0.16895 -0.005,-0.0584 -0.013,-0.11893 -0.0246,-0.18134 -0.0116,-0.0624 -0.0267,-0.12682 -0.0449,-0.19305 -0.0182,-0.0662 -0.0395,-0.13424 -0.0637,-0.20393 -0.0242,-0.0697 -0.0513,-0.14102 -0.0809,-0.21384 -0.0297,-0.0728 -0.0618,-0.14712 -0.0962,-0.22269 -0.0344,-0.0756 -0.071,-0.15243 -0.10946,-0.23034 -0.0385,-0.0779 -0.0788,-0.1569 -0.1205,-0.23672 -0.0418,-0.0798 -0.0849,-0.16047 -0.12919,-0.24173 -0.0442,-0.0812 -0.0895,-0.16311 -0.13541,-0.24532 -0.0459,-0.0822 -0.0924,-0.16478 -0.13911,-0.24746 -0.0467,-0.0827 -0.0936,-0.16545 -0.14022,-0.24809 -0.0466,-0.0826 -0.093,-0.16514 -0.13873,-0.24725 -0.0457,-0.0821 -0.0908,-0.16382 -0.13469,-0.2449 -0.0439,-0.0811 -0.0868,-0.16152 -0.12809,-0.2411 -0.0413,-0.0796 -0.0811,-0.15827 -0.11907,-0.23588 -0.0379,-0.0776 -0.0739,-0.15412 -0.1077,-0.22933 -0.0337,-0.0752 -0.0652,-0.1491 -0.0941,-0.22149 -0.0289,-0.0724 -0.0552,-0.14328 -0.0786,-0.21249 -0.0233,-0.0692 -0.0438,-0.13674 -0.0611,-0.20243 -0.0173,-0.0657 -0.0313,-0.12952 -0.0421,-0.19142 -0.0107,-0.0619 -0.0179,-0.12178 -0.0216,-0.17962 -0.004,-0.0578 -0.004,-0.11357 6e-5,-0.1671 0.004,-0.0536 0.0112,-0.10497 0.0225,-0.15416 0.0113,-0.0492 0.0265,-0.0961 0.0456,-0.14081 0.0189,-0.0448 0.0422,-0.0871 0.0689,-0.12736 0.0267,-0.0403 0.0578,-0.0781 0.0925,-0.11375 0.0347,-0.0357 0.0733,-0.0691 0.11567,-0.10036 0.0424,-0.0312 0.0886,-0.0603 0.13837,-0.0873 0.0498,-0.0269 0.10333,-0.0518 0.16028,-0.0746 0.0569,-0.0228 0.11744,-0.0436 0.18108,-0.0626 0.0637,-0.0189 0.13061,-0.036 0.20058,-0.0513 0.0699,-0.0153 0.14287,-0.0289 0.2185,-0.041 0.0756,-0.012 0.15394,-0.0226 0.23463,-0.0317 0.0807,-0.009 0.16374,-0.0169 0.24879,-0.0235 0.0851,-0.007 0.17213,-0.012 0.26081,-0.0166 0.0886,-0.005 0.17899,-0.008 0.27051,-0.011 0.0915,-0.003 0.18427,-0.005 0.2778,-0.007 0.0936,-0.002 0.18788,-0.003 0.28259,-0.004 0.0947,-10e-4 0.18979,-0.002 0.28481,-0.003 0.0951,-8.4e-4 0.18998,-0.002 0.28444,-0.003 0.0944,-0.001 0.18843,-0.003 0.28148,-0.005 0.0931,-0.002 0.18517,-0.005 0.27597,-0.008 0.0908,-0.003 0.18025,-0.007 0.26798,-0.0124 0.0877,-0.005 0.17372,-0.0111 0.2576,-0.0184 0.0839,-0.007 0.16566,-0.0158 0.24496,-0.0257 0.0793,-0.01 0.15616,-0.0213 0.23022,-0.0342 0.0741,-0.0129 0.14534,-0.0275 0.21355,-0.0439 0.0682,-0.0163 0.13338,-0.0344 0.19516,-0.0545 0.0618,-0.02 0.1203,-0.042 0.17527,-0.0659 0.0549,-0.024 0.10636,-0.05 0.15412,-0.0782 0.0478,-0.0281 0.0917,-0.0585 0.13196,-0.091 0.0402,-0.0325 0.0766,-0.0672 0.1091,-0.10416 0.0328,-0.0368 0.0611,-0.0762 0.0858,-0.11761 0.0247,-0.0415 0.0457,-0.0851 0.0623,-0.13115 0.0172,-0.0458 0.0298,-0.0942 0.0389,-0.14466 0.009,-0.0504 0.0144,-0.10312 0.016,-0.15791 0.002,-0.0548 -6e-4,-0.11177 -0.006,-0.17076 -0.006,-0.059 -0.015,-0.12007 -0.0276,-0.18305 -0.0126,-0.063 -0.0286,-0.12793 -0.0476,-0.19466 -0.0191,-0.0667 -0.0413,-0.13525 -0.0663,-0.2054 -0.025,-0.0701 -0.0529,-0.14195 -0.0832,-0.21519 -0.0303,-0.0732 -0.0632,-0.14792 -0.0982,-0.22385 -0.035,-0.0759 -0.0722,-0.15312 -0.11119,-0.23134 -0.039,-0.0782 -0.0797,-0.15746 -0.12188,-0.23751 -0.0421,-0.08 -0.0857,-0.16091 -0.13023,-0.24233 -0.0445,-0.0814 -0.09,-0.16341 -0.13611,-0.24572 -0.046,-0.0823 -0.0927,-0.16494 -0.13942,-0.24764 -0.0467,-0.0827 -0.0936,-0.16548 -0.14016,-0.24807 -0.0465,-0.0826 -0.0928,-0.16501 -0.13831,-0.24699 -0.0455,-0.082 -0.0903,-0.16355 -0.1339,-0.24445 -0.0436,-0.0809 -0.0861,-0.16112 -0.12696,-0.24044 -0.0409,-0.0793 -0.0802,-0.15774 -0.11758,-0.23503 -0.0374,-0.0773 -0.0728,-0.15346 -0.10589,-0.22828 -0.0331,-0.0748 -0.0639,-0.14832 -0.092,-0.22028 -0.0282,-0.072 -0.0536,-0.14239 -0.0762,-0.21112 -0.0225,-0.0687 -0.0421,-0.13574 -0.0585,-0.20091 -0.0163,-0.0651 -0.0295,-0.12847 -0.0392,-0.18978 -0.01,-0.0613 -0.0159,-0.12062 -0.0186,-0.17786 -0.003,-0.0572 -0.002,-0.11238 0.003,-0.16531 0.005,-0.0529 0.0134,-0.10372 0.0258,-0.15226 0.0124,-0.0485 0.0287,-0.0949 0.0489,-0.13891 0.0198,-0.0443 0.0439,-0.0861 0.0724,-0.12535 0.0285,-0.0393 0.06,-0.0768 0.0958,-0.11181 0.0358,-0.035 0.0755,-0.0678 0.11897,-0.0985 0.0434,-0.0306 0.0907,-0.0591 0.14157,-0.0854 0.0509,-0.0263 0.10541,-0.0506 0.16332,-0.0729 0.0579,-0.0223 0.11935,-0.0425 0.18396,-0.0609 0.0646,-0.0184 0.13242,-0.035 0.20324,-0.0498 0.0708,-0.0148 0.14452,-0.028 0.22091,-0.0396 0.0763,-0.0116 0.15543,-0.0217 0.23678,-0.0304 0.0814,-0.009 0.16503,-0.0161 0.25065,-0.0224 0.0856,-0.006 0.17319,-0.0114 0.26233,-0.0157 0.0892,-0.004 0.17984,-0.008 0.27171,-0.0103 0.0918,-0.003 0.18488,-0.005 0.27864,-0.006 0.0938,-0.002 0.18825,-0.003 0.28306,-0.004 0.0948,-9.9e-4 0.18993,-0.002 0.28492,-0.003 0.095,-8.8e-4 0.18986,-0.002 0.28417,-0.003 0.0944,-10e-4 0.18807,-0.003 0.28085,-0.005 0.0928,-0.002 0.18457,-0.005 0.27498,-0.008 0.0904,-0.004 0.17941,-0.008 0.26664,-0.0132 0.0873,-0.005 0.17266,-0.0117 0.25593,-0.0194 0.0833,-0.008 0.16438,-0.0165 0.24298,-0.0269 0.0786,-0.0103 0.15469,-0.0221 0.22796,-0.0355 0.0732,-0.0134 0.14369,-0.0285 0.21101,-0.0453 0.0673,-0.0168 0.13156,-0.0355 0.19241,-0.056 0.0608,-0.0206 0.1184,-0.0431 0.17231,-0.0677 0.0539,-0.0246 0.10437,-0.0512 0.15101,-0.08 0.0466,-0.0288 0.0897,-0.0597 0.12876,-0.0928 0.0391,-0.0331 0.0744,-0.0685 0.1058,-0.10605 0.031,-0.0378 0.0589,-0.0774 0.0824,-0.11956 0.0236,-0.0421 0.043,-0.0866 0.059,-0.13311 0.0155,-0.0468 0.0276,-0.0955 0.0357,-0.14655 0.008,-0.0511 0.0122,-0.10438 0.0128,-0.15976 5.7e-4,-0.0554 -0.003,-0.11297 -0.009,-0.17256 -0.007,-0.0596 -0.017,-0.12122 -0.0305,-0.18476 -0.0135,-0.0635 -0.0305,-0.12902 -0.0504,-0.19625 -0.0199,-0.0672 -0.043,-0.13624 -0.0688,-0.20686 -0.0258,-0.0706 -0.0544,-0.14284 -0.0855,-0.21649 -0.031,-0.0736 -0.0646,-0.14871 -0.10021,-0.225 -0.0356,-0.0763 -0.0734,-0.15379 -0.11285,-0.2323 -0.0394,-0.0785 -0.0807,-0.15801 -0.12323,-0.23828 -0.0426,-0.0803 -0.0864,-0.16133 -0.13122,-0.24291 -0.0448,-0.0816 -0.0905,-0.16369 -0.13673,-0.24608 -0.0462,-0.0824 -0.0929,-0.16508 -0.13969,-0.2478 -0.0468,-0.0827 -0.0936,-0.16546 -0.14006,-0.248 -0.0465,-0.0825 -0.0925,-0.16486 -0.13784,-0.24673 -0.0453,-0.0819 -0.0898,-0.16326 -0.13305,-0.24396 -0.0433,-0.0807 -0.0853,-0.16069 -0.12577,-0.23975 -0.0405,-0.0791 -0.0792,-0.15718 -0.11605,-0.23415 -0.0368,-0.077 -0.0716,-0.15276 -0.10404,-0.22721 -0.0324,-0.0744 -0.0625,-0.14752 -0.0899,-0.21904 -0.0274,-0.0715 -0.0521,-0.14148 -0.0737,-0.20972 -0.0217,-0.0682 -0.0404,-0.13474 -0.0558,-0.19937 -0.0154,-0.0646 -0.0276,-0.12737 -0.0363,-0.18812 -0.009,-0.0607 -0.0139,-0.11948 -0.0155,-0.17611 -0.002,-0.0566 5.3e-4,-0.11112 0.006,-0.16346 0.006,-0.0523 0.0155,-0.10247 0.0291,-0.15036 0.0136,-0.0479 0.0309,-0.0936 0.0523,-0.13695 0.0215,-0.0433 0.0465,-0.0846 0.0758,-0.12336 0.0293,-0.0388 0.0622,-0.0755 0.0991,-0.10991 0.0369,-0.0344 0.0777,-0.0666 0.12226,-0.0965 0.0446,-0.03 0.0928,-0.0578 0.14469,-0.0836 0.0519,-0.0257 0.1074,-0.0494 0.16635,-0.0711 0.0589,-0.0217 0.12125,-0.0414 0.1868,-0.0593 0.0655,-0.0179 0.13424,-0.0339 0.20586,-0.0483 0.0716,-0.0144 0.14616,-0.0271 0.2233,-0.0382 0.0771,-0.0112 0.15688,-0.0208 0.23889,-0.0292 0.082,-0.008 0.16629,-0.0154 0.25245,-0.0214 0.0861,-0.006 0.17424,-0.0108 0.26382,-0.0148 0.0896,-0.004 0.18066,-0.007 0.27284,-0.01 0.0922,-0.002 0.18548,-0.004 0.27944,-0.006 0.0939,-0.001 0.18859,-0.003 0.28348,-0.003 0.0949,-9.4e-4 0.19002,-0.002 0.28497,-0.003 0.095,-8.9e-4 0.18971,-0.002 0.28386,-0.003 0.0941,-10e-4 0.18767,-0.003 0.28016,-0.005 0.0925,-0.002 0.18394,-0.005 0.27394,-0.009 0.09,-0.004 0.17854,-0.008 0.26525,-0.014 0.0867,-0.006 0.17156,-0.0124 0.25421,-0.0204 0.0827,-0.008 0.16308,-0.0173 0.24096,-0.028 0.0779,-0.0107 0.15319,-0.023 0.22564,-0.0369 0.0725,-0.0139 0.14203,-0.0294 0.20847,-0.0468 0.0665,-0.0173 0.12974,-0.0365 0.18961,-0.0577 0.0599,-0.0211 0.11641,-0.0442 0.16934,-0.0694 0.053,-0.0251 0.10229,-0.0524 0.14789,-0.0818 0.0456,-0.0294 0.0875,-0.0609 0.12555,-0.0947 0.038,-0.0338 0.0722,-0.0697 0.10251,-0.10796 0.0302,-0.0383 0.0569,-0.0786 0.0793,-0.12135 0.0224,-0.0428 0.0413,-0.0876 0.0556,-0.13506 0.0147,-0.0472 0.0254,-0.0968 0.0324,-0.14846 0.007,-0.0517 0.0101,-0.10562 0.01,-0.1616 -5.5e-4,-0.056 -0.005,-0.11418 -0.0125,-0.17436 -0.008,-0.0602 -0.019,-0.12237 -0.0335,-0.18645 -0.0145,-0.0641 -0.0323,-0.13007 -0.0531,-0.19782 -0.0208,-0.0677 -0.0447,-0.13723 -0.0713,-0.2083 -0.0266,-0.0711 -0.0559,-0.14373 -0.0877,-0.21778 -0.0317,-0.074 -0.0659,-0.14949 -0.10215,-0.22612 -0.0362,-0.0766 -0.0745,-0.15444 -0.11447,-0.23323 -0.04,-0.0788 -0.0816,-0.15854 -0.12453,-0.23904 -0.0429,-0.0805 -0.0871,-0.16172 -0.13216,-0.24344 -0.0451,-0.0817 -0.091,-0.16395 -0.13731,-0.24642 -0.0464,-0.0825 -0.0933,-0.16487 -0.14009,-0.2476 l 9.9672,5.75456 -14.40245,24.94578 z"
         title="sin(x)"
         id="path10954-9-0" /><path
         id="path11502-6-2"
         title="sin(x)"
         d="m 335.58594,553.67641 c 0.0951,-8.3e-4 0.19007,-0.002 0.28466,-0.003 0.0946,-10e-4 0.18875,-0.002 0.28206,-0.004 0.0933,-0.002 0.18575,-0.004 0.27691,-0.007 0.0912,-0.003 0.18105,-0.007 0.26927,-0.0117 0.0882,-0.005 0.17475,-0.0105 0.25922,-0.0175 0.0845,-0.007 0.1669,-0.0151 0.24691,-0.0246 0.08,-0.01 0.15759,-0.0204 0.23244,-0.0329 0.0749,-0.0125 0.14696,-0.0266 0.21604,-0.0424 0.0691,-0.0158 0.13512,-0.0334 0.19788,-0.0529 0.0627,-0.0195 0.12221,-0.0409 0.1782,-0.0643 0.056,-0.0234 0.10844,-0.0488 0.15724,-0.0764 0.0488,-0.0275 0.0939,-0.0572 0.13516,-0.0891 0.0413,-0.0319 0.0788,-0.0659 0.11239,-0.10226 0.0336,-0.0363 0.0633,-0.0749 0.0892,-0.11566 0.0258,-0.0408 0.0477,-0.0839 0.0654,-0.12935 0.0181,-0.0453 0.0321,-0.0929 0.0422,-0.14276 0.0103,-0.0498 0.0166,-0.10187 0.0192,-0.15606 0.003,-0.0542 0.002,-0.11052 -0.003,-0.16895 -0.005,-0.0584 -0.013,-0.11893 -0.0246,-0.18134 -0.0116,-0.0624 -0.0267,-0.12682 -0.0449,-0.19305 -0.0182,-0.0662 -0.0395,-0.13424 -0.0637,-0.20393 -0.0242,-0.0697 -0.0513,-0.14102 -0.0809,-0.21384 -0.0297,-0.0728 -0.0618,-0.14712 -0.0962,-0.22269 -0.0344,-0.0756 -0.071,-0.15243 -0.10946,-0.23034 -0.0385,-0.0779 -0.0788,-0.1569 -0.1205,-0.23672 -0.0418,-0.0798 -0.0849,-0.16047 -0.12919,-0.24173 -0.0442,-0.0812 -0.0895,-0.16311 -0.13541,-0.24532 -0.0459,-0.0822 -0.0924,-0.16478 -0.13911,-0.24746 -0.0467,-0.0827 -0.0936,-0.16545 -0.14022,-0.24809 -0.0466,-0.0826 -0.093,-0.16514 -0.13873,-0.24725 -0.0457,-0.0821 -0.0908,-0.16382 -0.13469,-0.2449 -0.0439,-0.0811 -0.0868,-0.16152 -0.12809,-0.2411 -0.0413,-0.0796 -0.0811,-0.15827 -0.11907,-0.23588 -0.0379,-0.0776 -0.0739,-0.15412 -0.1077,-0.22933 -0.0337,-0.0752 -0.0652,-0.1491 -0.0941,-0.22149 -0.0289,-0.0724 -0.0552,-0.14328 -0.0786,-0.21249 -0.0233,-0.0692 -0.0438,-0.13674 -0.0611,-0.20243 -0.0173,-0.0657 -0.0313,-0.12952 -0.0421,-0.19142 -0.0107,-0.0619 -0.0179,-0.12178 -0.0216,-0.17962 -0.004,-0.0578 -0.004,-0.11357 6e-5,-0.1671 0.004,-0.0536 0.0112,-0.10497 0.0225,-0.15416 0.0113,-0.0492 0.0265,-0.0961 0.0456,-0.14081 0.0189,-0.0448 0.0422,-0.0871 0.0689,-0.12736 0.0267,-0.0403 0.0578,-0.0781 0.0925,-0.11375 0.0347,-0.0357 0.0733,-0.0691 0.11567,-0.10036 0.0424,-0.0312 0.0886,-0.0603 0.13837,-0.0873 0.0498,-0.0269 0.10333,-0.0518 0.16028,-0.0746 0.0569,-0.0228 0.11744,-0.0436 0.18108,-0.0626 0.0637,-0.0189 0.13061,-0.036 0.20058,-0.0513 0.0699,-0.0153 0.14287,-0.0289 0.2185,-0.041 0.0756,-0.012 0.15394,-0.0226 0.23463,-0.0317 0.0807,-0.009 0.16374,-0.0169 0.24879,-0.0235 0.0851,-0.007 0.17213,-0.012 0.26081,-0.0166 0.0886,-0.005 0.17899,-0.008 0.27051,-0.011 0.0915,-0.003 0.18427,-0.005 0.2778,-0.007 0.0936,-0.002 0.18788,-0.003 0.28259,-0.004 0.0947,-10e-4 0.18979,-0.002 0.28481,-0.003 0.0951,-8.4e-4 0.18998,-0.002 0.28444,-0.003 0.0944,-0.001 0.18843,-0.003 0.28148,-0.005 0.0931,-0.002 0.18517,-0.005 0.27597,-0.008 0.0908,-0.003 0.18025,-0.007 0.26798,-0.0124 0.0877,-0.005 0.17372,-0.0111 0.2576,-0.0184 0.0839,-0.007 0.16566,-0.0158 0.24496,-0.0257 0.0793,-0.01 0.15616,-0.0213 0.23022,-0.0342 0.0741,-0.0129 0.14534,-0.0275 0.21355,-0.0439 0.0682,-0.0163 0.13338,-0.0344 0.19516,-0.0545 0.0618,-0.02 0.1203,-0.042 0.17527,-0.0659 0.0549,-0.024 0.10636,-0.05 0.15412,-0.0782 0.0478,-0.0281 0.0917,-0.0585 0.13196,-0.091 0.0402,-0.0325 0.0766,-0.0672 0.1091,-0.10416 0.0328,-0.0368 0.0611,-0.0762 0.0858,-0.11761 0.0247,-0.0415 0.0457,-0.0851 0.0623,-0.13115 0.0172,-0.0458 0.0298,-0.0942 0.0389,-0.14466 0.009,-0.0504 0.0144,-0.10312 0.016,-0.15791 0.002,-0.0548 -6e-4,-0.11177 -0.006,-0.17076 -0.006,-0.059 -0.015,-0.12007 -0.0276,-0.18305 -0.0126,-0.063 -0.0286,-0.12793 -0.0476,-0.19466 -0.0191,-0.0667 -0.0413,-0.13525 -0.0663,-0.2054 -0.025,-0.0701 -0.0529,-0.14195 -0.0832,-0.21519 -0.0303,-0.0732 -0.0632,-0.14792 -0.0982,-0.22385 -0.035,-0.0759 -0.0722,-0.15312 -0.11119,-0.23134 -0.039,-0.0782 -0.0797,-0.15746 -0.12188,-0.23751 -0.0421,-0.08 -0.0857,-0.16091 -0.13023,-0.24233 -0.0445,-0.0814 -0.09,-0.16341 -0.13611,-0.24572 -0.046,-0.0823 -0.0927,-0.16494 -0.13942,-0.24764 -0.0467,-0.0827 -0.0936,-0.16548 -0.14016,-0.24807 -0.0465,-0.0826 -0.0928,-0.16501 -0.13831,-0.24699 -0.0455,-0.082 -0.0903,-0.16355 -0.1339,-0.24445 -0.0436,-0.0809 -0.0861,-0.16112 -0.12696,-0.24044 -0.0409,-0.0793 -0.0802,-0.15774 -0.11758,-0.23503 -0.0374,-0.0773 -0.0728,-0.15346 -0.10589,-0.22828 -0.0331,-0.0748 -0.0639,-0.14832 -0.092,-0.22028 -0.0282,-0.072 -0.0536,-0.14239 -0.0762,-0.21112 -0.0225,-0.0687 -0.0421,-0.13574 -0.0585,-0.20091 -0.0163,-0.0651 -0.0295,-0.12847 -0.0392,-0.18978 -0.01,-0.0613 -0.0159,-0.12062 -0.0186,-0.17786 -0.003,-0.0572 -0.002,-0.11238 0.003,-0.16531 0.005,-0.0529 0.0134,-0.10372 0.0258,-0.15226 0.0124,-0.0485 0.0287,-0.0949 0.0489,-0.13891 0.0198,-0.0443 0.0439,-0.0861 0.0724,-0.12535 0.0285,-0.0393 0.06,-0.0768 0.0958,-0.11181 0.0358,-0.035 0.0755,-0.0678 0.11897,-0.0985 0.0434,-0.0306 0.0907,-0.0591 0.14157,-0.0854 0.0509,-0.0263 0.10541,-0.0506 0.16332,-0.0729 0.0579,-0.0223 0.11935,-0.0425 0.18396,-0.0609 0.0646,-0.0184 0.13242,-0.035 0.20324,-0.0498 0.0708,-0.0148 0.14452,-0.028 0.22091,-0.0396 0.0763,-0.0116 0.15543,-0.0217 0.23678,-0.0304 0.0814,-0.009 0.16503,-0.0161 0.25065,-0.0224 0.0856,-0.006 0.17319,-0.0114 0.26233,-0.0157 0.0892,-0.004 0.17984,-0.008 0.27171,-0.0103 0.0918,-0.003 0.18488,-0.005 0.27864,-0.006 0.0938,-0.002 0.18825,-0.003 0.28306,-0.004 0.0948,-9.9e-4 0.18993,-0.002 0.28492,-0.003 0.095,-8.8e-4 0.18986,-0.002 0.28417,-0.003 0.0944,-10e-4 0.18807,-0.003 0.28085,-0.005 0.0928,-0.002 0.18457,-0.005 0.27498,-0.008 0.0904,-0.004 0.17941,-0.008 0.26664,-0.0132 0.0873,-0.005 0.17266,-0.0117 0.25593,-0.0194 0.0833,-0.008 0.16438,-0.0165 0.24298,-0.0269 0.0786,-0.0103 0.15469,-0.0221 0.22796,-0.0355 0.0732,-0.0134 0.14369,-0.0285 0.21101,-0.0453 0.0673,-0.0168 0.13156,-0.0355 0.19241,-0.056 0.0608,-0.0206 0.1184,-0.0431 0.17231,-0.0677 0.0539,-0.0246 0.10437,-0.0512 0.15101,-0.08 0.0466,-0.0288 0.0897,-0.0597 0.12876,-0.0928 0.0391,-0.0331 0.0744,-0.0685 0.1058,-0.10605 0.031,-0.0378 0.0589,-0.0774 0.0824,-0.11956 0.0236,-0.0421 0.043,-0.0866 0.059,-0.13311 0.0155,-0.0468 0.0276,-0.0955 0.0357,-0.14655 0.008,-0.0511 0.0122,-0.10438 0.0128,-0.15976 5.7e-4,-0.0554 -0.003,-0.11297 -0.009,-0.17256 -0.007,-0.0596 -0.017,-0.12122 -0.0305,-0.18476 -0.0135,-0.0635 -0.0305,-0.12902 -0.0504,-0.19625 -0.0199,-0.0672 -0.043,-0.13624 -0.0688,-0.20686 -0.0258,-0.0706 -0.0544,-0.14284 -0.0855,-0.21649 -0.031,-0.0736 -0.0646,-0.14871 -0.10021,-0.225 -0.0356,-0.0763 -0.0734,-0.15379 -0.11285,-0.2323 -0.0394,-0.0785 -0.0807,-0.15801 -0.12323,-0.23828 -0.0426,-0.0803 -0.0864,-0.16133 -0.13122,-0.24291 -0.0448,-0.0816 -0.0905,-0.16369 -0.13673,-0.24608 -0.0462,-0.0824 -0.0929,-0.16508 -0.13969,-0.2478 -0.0468,-0.0827 -0.0936,-0.16546 -0.14006,-0.248 -0.0465,-0.0825 -0.0925,-0.16486 -0.13784,-0.24673 -0.0453,-0.0819 -0.0898,-0.16326 -0.13305,-0.24396 -0.0433,-0.0807 -0.0853,-0.16069 -0.12577,-0.23975 -0.0405,-0.0791 -0.0792,-0.15718 -0.11605,-0.23415 -0.0368,-0.077 -0.0716,-0.15276 -0.10404,-0.22721 -0.0324,-0.0744 -0.0625,-0.14752 -0.0899,-0.21904 -0.0274,-0.0715 -0.0521,-0.14148 -0.0737,-0.20972 -0.0217,-0.0682 -0.0404,-0.13474 -0.0558,-0.19937 -0.0154,-0.0646 -0.0276,-0.12737 -0.0363,-0.18812 -0.009,-0.0607 -0.0139,-0.11948 -0.0155,-0.17611 -0.002,-0.0566 5.3e-4,-0.11112 0.006,-0.16346 0.006,-0.0523 0.0155,-0.10247 0.0291,-0.15036 0.0136,-0.0479 0.0309,-0.0936 0.0523,-0.13695 0.0215,-0.0433 0.0465,-0.0846 0.0758,-0.12336 0.0293,-0.0388 0.0622,-0.0755 0.0991,-0.10991 0.0369,-0.0344 0.0777,-0.0666 0.12226,-0.0965 0.0446,-0.03 0.0928,-0.0578 0.14469,-0.0836 0.0519,-0.0257 0.1074,-0.0494 0.16635,-0.0711 0.0589,-0.0217 0.12125,-0.0414 0.1868,-0.0593 0.0655,-0.0179 0.13424,-0.0339 0.20586,-0.0483 0.0716,-0.0144 0.14616,-0.0271 0.2233,-0.0382 0.0771,-0.0112 0.15688,-0.0208 0.23889,-0.0292 0.082,-0.008 0.16629,-0.0154 0.25245,-0.0214 0.0861,-0.006 0.17424,-0.0108 0.26382,-0.0148 0.0896,-0.004 0.18066,-0.007 0.27284,-0.01 0.0922,-0.002 0.18548,-0.004 0.27944,-0.006 0.0939,-0.001 0.18859,-0.003 0.28348,-0.003 0.0949,-9.4e-4 0.19002,-0.002 0.28497,-0.003 0.095,-8.9e-4 0.18971,-0.002 0.28386,-0.003 0.0941,-10e-4 0.18767,-0.003 0.28016,-0.005 0.0925,-0.002 0.18394,-0.005 0.27394,-0.009 0.09,-0.004 0.17854,-0.008 0.26525,-0.014 0.0867,-0.006 0.17156,-0.0124 0.25421,-0.0204 0.0827,-0.008 0.16308,-0.0173 0.24096,-0.028 0.0779,-0.0107 0.15319,-0.023 0.22564,-0.0369 0.0725,-0.0139 0.14203,-0.0294 0.20847,-0.0468 0.0665,-0.0173 0.12974,-0.0365 0.18961,-0.0577 0.0599,-0.0211 0.11641,-0.0442 0.16934,-0.0694 0.053,-0.0251 0.10229,-0.0524 0.14789,-0.0818 0.0456,-0.0294 0.0875,-0.0609 0.12555,-0.0947 0.038,-0.0338 0.0722,-0.0697 0.10251,-0.10796 0.0302,-0.0383 0.0569,-0.0786 0.0793,-0.12135 0.0224,-0.0428 0.0413,-0.0876 0.0556,-0.13506 0.0147,-0.0472 0.0254,-0.0968 0.0324,-0.14846 0.007,-0.0517 0.0101,-0.10562 0.01,-0.1616 -5.5e-4,-0.056 -0.005,-0.11418 -0.0125,-0.17436 -0.008,-0.0602 -0.019,-0.12237 -0.0335,-0.18645 -0.0145,-0.0641 -0.0323,-0.13007 -0.0531,-0.19782 -0.0208,-0.0677 -0.0447,-0.13723 -0.0713,-0.2083 -0.0266,-0.0711 -0.0559,-0.14373 -0.0877,-0.21778 -0.0317,-0.074 -0.0659,-0.14949 -0.10215,-0.22612 -0.0362,-0.0766 -0.0745,-0.15444 -0.11447,-0.23323 -0.04,-0.0788 -0.0816,-0.15854 -0.12453,-0.23904 -0.0429,-0.0805 -0.0871,-0.16172 -0.13216,-0.24344 -0.0451,-0.0817 -0.091,-0.16395 -0.13731,-0.24642 -0.0464,-0.0825 -0.0933,-0.16487 -0.14009,-0.2476"
         style="fill:none;stroke:#000000;stroke-width:0.99999994;stroke-linecap:round;stroke-linejoin:miter;stroke-miterlimit:4;stroke-opacity:1;stroke-dasharray:none;stroke-dashoffset:0"
         inkscape:connector-curvature="0"
         sodipodi:nodetypes="cccccccccccsscsccscccscccccccccccccccccccscssscsccccccccscccccsccsccsscccssssscscccccccscccccccccsscsssscccccccccccccccssccsssscccsssccccscccccccccccccccssscsssccccccccccccccccccscccsccscscscccccscccc" /></g></g></svg>